<?xml version="1.0" encoding="UTF-8"?>
<!DOCTYPE svg PUBLIC "-//W3C//DTD SVG 1.1//EN" "http://www.w3.org/Graphics/SVG/1.1/DTD/svg11.dtd">
<!-- Creator: CorelDRAW -->
<svg xmlns="http://www.w3.org/2000/svg" xml:space="preserve" width="182.051mm" height="58.6898mm" version="1.1" style="shape-rendering:geometricPrecision; text-rendering:geometricPrecision; image-rendering:optimizeQuality; fill-rule:evenodd; clip-rule:evenodd"
viewBox="0 0 14308.06 4612.64"
 xmlns:xlink="http://www.w3.org/1999/xlink"
 xmlns:xodm="http://www.corel.com/coreldraw/odm/2003">
 <defs>
  <style type="text/css">
   <![CDATA[
    .fil0 {fill:#373535}
   ]]>
  </style>
 </defs>
 <g id="Layer_x0020_1">
  <metadata id="CorelCorpID_0Corel-Layer"/>
  <g id="_105553238068800">
   <path class="fil0" d="M6370.71 3894.73c0.54,-0.54 1.63,0.86 1.63,1.63l0.01 0c-0.11,-0.11 -2.18,-1.09 -1.63,-1.63zm1311.59 716.22l-254.64 1.7c-7.62,-11 -12.46,-21.86 -21.3,-33.54 -9.09,-12.02 2.1,10.78 -8.61,-13.3l-19.15 -35.63c-3.06,-5.17 -2.13,-1.99 -4.79,-11.64 -12.32,-44.59 -7.99,-23.29 -22.68,-59.48 -6.45,-15.88 -3.46,-23.25 -10.1,-39.2 -5.88,-14.13 -13.08,-19.63 -15.93,-38.85 -2.5,-16.76 1.35,-30.84 -4.18,-45.12 -6.37,-16.45 -14.91,-9.29 -18.6,-36.18 -2.02,-14.72 1.49,-33.9 -0.97,-48.34 -5.34,-31.41 -21.09,-29.72 -21.28,-82.8 -0.16,-45.78 -11.07,-46 -19.44,-79.17 -7.29,-28.91 -6.52,-63.55 -7.88,-96.2 -1.46,-35.44 -13.68,-50.95 -19.12,-84.95 -11.57,-72.35 5.77,-84.59 -17.07,-185.61 -16.35,-72.31 -5.38,-247.02 -12.22,-343.89 -2.02,-28.6 4.38,-11.84 -1.01,-37.28 -51.16,0 -36.65,13.9 -76.57,22.04 -21.25,4.33 -19.53,0.79 -36.88,12.41l-118.84 61.93c-1.08,0.57 -2.51,1.31 -3.55,1.93 -17.54,10.32 -3.69,10.48 -27.09,16.73 0.7,31.58 2.53,13.02 10.98,38.31 20.99,62.84 -11.07,97.31 -11.14,153.24 -0.14,97.56 -22.05,56.72 -27.2,120.7 -2.88,35.93 0.21,10.31 -13.52,35.78 -8.07,14.98 -6.15,22.99 -12.39,36.91l-65.36 126.36c-14.14,22.17 -7.28,6.12 -21.07,22.74 -3.97,4.79 -16.45,24.62 -19.58,29.73l-63.23 79.19c-10.37,10.85 -14.46,15.99 -23.93,25.36l-61.3 59.22c-0.86,0.74 -2.13,1.74 -3.01,2.48l-44.71 37.45c-0.87,0.72 -2.01,1.87 -2.88,2.59 -31.03,25.77 -66.14,43.47 -98.89,65.45l-37.06 17.71c-21.77,9.21 -7.3,9.05 -31.65,17.65 -17,6 -15.44,2.09 -31.14,12.68 -41.7,28.13 -42.01,4.31 -78.09,20.51 -21.22,9.53 -1.87,6.84 -36.89,12.79 -9.63,1.63 -21.93,3.02 -37.03,0.81l-38.21 -11.53c-22.98,-10.72 -19.68,-3.4 -38.91,-10.39 -23.31,-8.46 -3.62,-5.45 -28.62,-20.68 -24.62,-15 -27.88,-24.28 -48.05,-45.07 -22.58,-23.29 -5.09,-1.3 -17.67,-31.63 -21.24,-51.17 -10.92,0.87 -18.67,-74.47 -12.17,-118.37 17.76,-139.24 22.03,-160.45 3.18,-15.74 -2.29,-7.37 4.9,-22.49 8.69,-18.25 -1.63,0.97 9.75,-12.17 9.05,-10.45 1.69,1.63 11.75,-15.64l103.65 -142.85c0.76,-0.83 1.89,-1.99 2.66,-2.82 0.76,-0.83 1.88,-2 2.63,-2.84 56.11,-62.17 118.25,-119.97 179.95,-176.11l110.62 -92.06c15.03,-12.17 24.22,-14.7 34.97,-30.76 -28.52,-19.1 -3.22,-14.37 -48.95,-16.78 -13.71,-0.72 -39.26,-3.38 -53.63,-6.63 -37.73,-8.51 -49.06,-21.06 -100.11,-20.4 -53,0.68 -55.71,-18.63 -98.88,-21.64 -89.12,-6.21 -10.56,-12.31 -98.16,-22.36 -24.82,-2.85 -20.37,-12.11 -40.33,-19.93l-39.73 -20.53c-23.81,-10.7 -15.85,1.19 -42.41,-17.84l-22.25 -16.1c-0.85,-0.75 -2,-1.88 -2.83,-2.65 -0.83,-0.77 -1.93,-1.96 -2.73,-2.75 -0.8,-0.79 -1.86,-2.02 -2.66,-2.81l-49.33 -49.26c-71.8,-65.01 -20.32,-77.78 -66.3,-81.61 0,34.75 5.48,45.74 5.48,82.17 0,63.09 1.91,138.93 -4.68,198 -5.48,49.18 2.54,44.48 -11.42,98.14 -12.75,49.01 5.6,123.74 -19.9,171.82 -5,9.43 -3.91,2.06 -6.83,15.08 -7.73,34.45 1.11,63.65 -15.62,93.94 -23.62,42.77 -1.35,37.61 -27.68,81.87 -8.98,15.09 -3.03,-1.76 -6.81,20.58 -5.75,33.88 -16.17,29.87 -21.77,60.4 -7.81,42.57 -23.94,30.9 -27.72,76.35 -24.4,2.67 -14.37,1.39 -22.35,21.47l-24.45 41.29c-38.17,60.15 -75.54,94.26 -122.55,145.85l-54.8 49.28c-8.06,6.49 -5.71,5.28 -11.38,10.52l-53.23 34.42c-46.63,22.19 -83.14,55.61 -137.07,71.09 -23.18,6.64 -14.26,8.87 -28.14,15.67 -18.3,8.96 -12.23,2.22 -32.82,5.53 -38.13,6.11 -8.32,19.65 -55.21,21.48 -41.36,1.61 -38.88,-5.48 -70.22,11.95 -29.22,16.25 -28.95,7.32 -66.7,9.98 -48.88,3.45 -88.43,21.61 -137.26,21.61l-323.19 0c-51.22,0 -94.94,-21.91 -147.91,-21.91l-1922.71 0 0 -4557.54 1982.97 0 0 635.43c0,19.51 -2.67,43.82 -21.91,43.82l-1205.11 0c0,27.77 5.48,29.85 5.48,60.26l0 1101.04c0,65.49 -26.8,55.09 65.72,54.79 284.89,-0.93 570.01,4.2 854.87,-0.33 23.26,-0.37 43.5,-5.42 43.5,16.76l0 657.34c0,23.09 -24.73,17.02 -49.11,16.62l-723.26 -0.19c-261.11,0 -191.72,-8.66 -191.72,43.82l0 1177.73c0,38.49 -21.23,62.14 15.84,66.25 47.96,5.33 1030.19,-0.83 1173.03,-0.72 60.99,0.05 222.33,34.28 325.09,7.75 38.47,-9.93 24.93,-10.97 74.77,-12.87 24.31,-0.93 16.89,0.69 33.56,-10.26 33.43,-21.98 27.32,-1.97 85.2,-46.28 64.51,-49.38 77.41,-108.41 83.88,-118.8 11.36,-18.28 15.86,-19.68 16.38,-49.36 0.68,-38.24 21.85,-51.06 21.85,-65.8l0 -3577.01 761.41 0 0 2832.03c0,36.58 -10.97,86.69 0,109.56 27.64,-18.51 15.89,-18.83 23.41,-53.29 4.13,-18.96 6.99,-7.14 21.12,-55.57 9.42,-32.31 3.16,-4.32 15.46,-22.89 7.1,-10.72 7.1,-25.06 24.75,-46.46l31.39 -45.3c13.47,-25.93 70.72,-84.98 95.5,-107.18l161.01 -129.32c26.62,-21.85 64.07,-33.98 94.61,-53.29 16.87,-10.67 39.33,-7.88 56.98,-19.71 27.61,-18.49 30.76,-6.86 67.21,-9.48 24.25,-1.74 34.93,-10.78 60.43,-10.78l82.09 11.03c18.69,2.11 51.22,23.09 52.75,23.94l32.11 22.67c18.11,11.2 28.93,30.04 42.37,45.28l59.29 116c6.02,10.93 12.68,14.69 15.59,28.23 5.55,25.81 5.93,53.9 14.21,73.43 15.33,36.13 21.68,133.99 10.11,174.2 -6.81,23.69 -34.71,47.53 -62.03,47.53 -30.31,0 -69.3,5.86 -89.55,-20 -17.35,-22.15 -2.74,-21.12 -14.8,-45.45 -5.96,-12.02 -7.91,-7.54 -12.9,-19.97 -4.76,-11.85 -1.8,-10.37 -5.02,-22.38 -2.64,-9.85 -9.91,-29.14 -25.63,-29.14 -72.27,0 -70.79,-8.6 -111.16,14.83l-163.38 88.59c-33.14,27.53 -77.27,56.35 -88.06,98.47 -16.94,66.14 9.89,54.04 45.53,76.83 30.67,19.62 28.83,10.16 71.69,15.96 25.65,3.47 14.82,-0.46 35.4,8.43 22.37,9.64 6.11,6.24 34.47,9.34 29.75,3.26 46.57,5.64 82.41,5.23 37.8,-0.43 41.45,-0.2 73.32,14.33 29.1,13.26 51.56,1.72 75.58,12.06l60.5 27.15 146.63 116.3c6.39,-3.38 9.97,-4.88 19.15,-8.24 4.62,-1.69 8.76,-2.58 12.3,-4.13l22.95 -15.4c1.05,-0.61 2.44,-1.36 3.55,-1.92l51.2 -25.49c29.64,-9.08 32.38,-20.1 51.24,-25.45 35.74,-10.13 40.78,-19.19 54.6,-22.09 26.58,-5.57 21.06,4.67 45.8,-8.98 24.58,-13.55 31.62,-14.29 62.4,-14.29 -0.56,-24.77 -5.48,-21.77 -5.48,-49.3l5.46 -208.17c1.96,-39.3 10.69,-96.6 11.18,-136.71 1.02,-82.4 -10.76,-295.71 8.01,-364.49 20.87,-76.51 8.8,-128.26 19.42,-199.7 3.73,-25.17 14.32,-35.28 16.04,-60.65 1.79,-26.44 1.46,-46.78 4.04,-67.17 10.89,-86.04 23.49,-76.8 23.49,-124.41 -127.67,0 -100.15,13.64 -153.3,16.51 -68.93,3.71 -155.71,8.17 -225.27,0.52 -38.07,-4.18 -27.67,-8.49 -56.27,-14.93 -29,-6.54 -70.07,2.08 -98.09,-5.98 -27.53,-7.93 -2.4,0.76 -21.98,-10.89 -11.56,-6.88 2.14,-1.01 -14.3,-7.61l-46.15 -25.06c-20.11,-13.02 -26.72,-28.65 -40.98,-46.67 -14.02,-17.73 -6.95,-2.18 -11.23,-21.64l-11.67 -54.06 15.66 -50.07c4.87,-10.39 44.61,-37.58 55.55,-37.58 37.31,0 56.14,3.91 82.32,32.71 1.84,2.02 17.03,21.42 18.67,25.14 5.72,12.89 1.76,15.62 8.56,29.79 51.6,12.02 198.15,10.82 240.07,-6.43 51.55,-21.21 81.3,-6.5 119.12,-17.83 21.79,-6.53 17.84,-17.16 51.69,-19.52 22.07,-1.55 43.35,3.6 61.94,-3.8 26.42,-10.51 5.44,-13.68 48.11,-17.88 42.79,-4.22 21.38,-4.64 21.38,-33.14 0,-23.56 9.45,-24.04 16.36,-38.43 10.27,-21.44 2.29,-23.18 6.95,-47.82 2.95,-15.59 11.2,-22.2 16.67,-38.11 4.8,-13.97 4.72,-30.01 7.83,-41.47 8.15,-30.1 12.33,-14.38 20.28,-34.49 5.55,-14.03 2.93,-26.78 10.11,-39.19l16.35 -38.43c6.41,-22.64 18.16,-31.24 24.76,-51.93 6.54,-20.48 58.56,-91.95 73.77,-107.01l50.14 -37.5c25.29,-13.41 14.24,-15.49 50.69,-20.51l90.79 0.63c37.28,5.16 13.15,-2.96 36.03,13.27 21.72,15.41 71.91,33.41 88.74,97.51 13.63,51.87 40.32,78.33 8.83,134.88 -0.59,1.06 -1.43,2.4 -2.02,3.46 -0.59,1.07 -1.34,2.48 -1.93,3.55 -0.79,1.45 -2.89,5.81 -3.7,7.25 -7.7,13.67 1.22,2.16 -8.65,13.27 -10.32,11.62 -8.51,5.3 -22.45,21.37 -18.46,21.29 -23.02,38.17 -40.43,58.17 -18.89,21.72 -17.24,27.38 -24.76,51.93 -4.46,14.58 -10.33,13.76 -14.48,29.34 36.3,0 53.22,5.23 77.82,-9.82 31.2,-19.1 27,-10.41 70.24,-11.93 40.56,-1.43 36.83,-15.6 61.33,-20.84 28.13,-6.03 49.85,2.87 75.01,-7.15 34.65,-13.8 10.76,-16.6 66.22,-15.95 60.72,0.7 71.76,-24.59 137.03,-27.3 75.58,-3.14 38.91,-16.88 148.03,-21.79 34.34,-1.54 32.4,-13.61 62.08,-20.08 25.17,-5.49 54.11,-1.25 80.36,-1.81 37.14,-0.78 37.69,-8.94 64.53,-17.64 42.87,-13.9 98.2,3.38 147.15,-17.19 38.97,-16.37 104.06,-8.52 155.3,-9.03 60.27,-0.6 85.38,-22.64 147.61,-22.21 119.22,0.83 204.21,-9.64 318.08,-0.21 48.5,4.02 112.91,-5.11 153.95,10.39 55.46,20.95 107.94,1.27 150.23,14.1 33.09,10.04 5.25,16.03 62.62,19.54 35.07,2.15 10,-2.62 32.14,11.69 41.95,27.09 52.63,16.25 101.95,62.38l23.13 20.69c0.86,0.74 2.15,1.73 2.99,2.48l16.01 16.86c15.56,16.46 7.01,0.82 14.87,23.48 9.32,26.88 14.52,13.77 25.38,40.36 6.63,16.25 6.41,77.37 -1.61,91.86 -8.74,15.78 -11.71,7.16 -22.93,20.91 -1.3,1.6 -4.83,8.88 -5.77,10.67 -104.49,0 -80.56,23.11 -135.51,-45.26 -13.91,-17.31 -21.11,-36.64 -36.05,-51.59l-33.28 -21.5c-1.08,-0.58 -2.51,-1.31 -3.54,-1.93 -18.86,-11.31 -2.82,-11.12 -27.89,-15.93 -22.23,-4.26 -16.49,3.64 -37.5,-6.32 -30.2,-14.31 -26.23,-16.83 -65.7,-16.47 -60.47,0.57 -104.14,-5.23 -164.61,-5.45 -36.32,-0.14 -47.23,5.75 -81.86,5.79 -52.37,0.07 -111.09,-3.18 -156.86,12.95 -29.41,10.37 -36.17,9.15 -73.37,8.79 -87.66,-0.85 -72.86,22.98 -147.92,21.9 -105.8,-1.54 -31.34,19.72 -148.15,21.66 -41.43,0.69 -39.57,11.77 -68.02,19.62 -32.36,8.93 -79.61,2.81 -108.34,17.64 -32.47,16.75 -79.32,4.36 -108.14,17.86 -28.33,13.25 -34.17,16.34 -71.49,16.16 -51.91,-0.25 -32.39,10.72 -62.37,19.79 -24.91,7.54 -60.01,-0.34 -80.94,6.7 -36.02,12.13 -11.29,18.11 -64.61,17.56 -41.02,-0.42 -39.67,6.48 -69.74,17.91 -17.2,6.54 -51.27,8.02 -72.82,9.35 -38.02,2.33 -30.68,15.8 -66.8,20.84 -33.64,4.69 -44.68,-4.92 -73.94,8.23 -31.69,14.25 -28.36,15.21 -72.9,14.75 -30.42,-0.31 -43.31,5.89 -65.76,16.41 -23.99,11.23 -51.2,2.88 -82.08,5.56 -28.58,2.48 -33.56,15.7 -60.25,21.92 0,60.05 -1.31,47.68 -18.19,96.84 -10.31,30.02 0.29,80.92 -8.19,106.85 -6.29,19.24 -14.15,23.41 -16.95,43.31 -4.55,32.27 2.97,81.39 -4.5,110.53 -5.42,21.13 -9.34,20.77 -14.68,40.1 -12.73,46.1 1.94,107.02 -13.42,161.87 -19.77,70.59 -9.3,138.48 -17.83,212.24 -1.89,16.34 -7.24,25 -11.71,43.07 -13.3,53.73 -4.68,153.31 -9.82,220.25 -2.38,31.13 -11.47,65.7 -17.04,97.99 -17.39,100.95 7.59,237.72 -6.85,338.25 -9.98,69.42 -19.67,134.29 -19.67,210.39 0,107.08 -10.11,398.68 9.42,494.53 18.59,91.24 3.83,150.89 12.99,228.03 2.96,24.86 16.64,39.84 20.21,61.96 5.75,35.65 -6.48,41.09 10.25,71.92l23.81 52.87c19.85,-5.3 30.51,-25.88 39.56,-42.61 15.71,-29.03 34.81,-56.63 43.37,-88.1l2.47 -8.48c10.44,-24.55 9.31,-4.37 19.6,-46.13 6.14,-24.89 10.88,-4.2 19.62,-35.16 3.95,-14.01 1.07,-18.97 6.06,-32.29 7.3,-19.46 8.24,-9.71 13.94,-24.4 5.98,-15.44 0.6,-15.15 7.58,-30.76 10.36,-23.18 2.85,4.89 15.18,-23.16 5.31,-12.09 4.9,-20.52 6.88,-31.46 6.83,-37.94 10.8,-12.17 20.42,-39.85 3.95,-11.36 1.12,-4.49 2.26,-14.17 5.95,-50.68 13.66,-21.19 21.31,-55.38 5.31,-23.81 -5.05,-8.43 7.88,-30.47 22.85,-38.95 8.45,-35.52 19.12,-57.57 9.89,-20.44 3.48,-3.18 9.8,-12.1 7.88,-11.13 8.04,-27.98 12.49,-42.29l20.91 -55.79c10.28,-29.13 1.33,-0.83 14.23,-24.12 8.82,-15.94 5.72,-32.31 11.91,-48.34 6.52,-16.88 14.43,-13.61 19,-35.78 6.95,-33.69 17.62,-36.81 21.69,-55.01 1.72,-7.69 0.79,-23.52 0.79,-32.07 40.74,-21.56 8.7,-9.82 29.79,-46.9 9.07,-15.97 5.91,-1.72 13.99,-24.35l122.83 -244.19c4.05,-6.77 11.25,-13.99 17.3,-21.05l15.41 -17.46c0.72,-0.88 1.76,-2.12 2.46,-3.03l51.82 -57.73c7.34,-6.2 14.08,-11.34 21.34,-17.01 15.98,-12.45 4.15,-4.93 20.77,-12.09 11,-4.74 3.49,-0.39 15.33,-6.59 0.66,-0.35 7.2,-4.49 10.22,-6.21l10.7 -5.73c1.08,-0.61 2.63,-1.17 3.67,-1.82 8.06,-5.01 4.48,-0.53 9.48,-6.95 10.49,-13.46 15.11,-56.73 28.73,-80.83 31.7,-56.15 85.67,-74.92 101.2,-85.04 13.53,-8.83 34.02,-14.89 56.32,-14.89 57.57,0 51.35,-2.1 99.81,20.71l71.87 54.13c15.49,18.32 3.68,6.47 11.69,26.66 5.18,13.05 3.76,8.3 8,13.91l7.74 8.68c19.12,27.52 10.7,137.8 6.74,163.92 -8.01,52.92 -0.61,164.72 2.21,227.01 1.84,40.71 19.4,55.68 21.79,93.24 1.71,26.79 -3.94,33.6 5.8,54.45 35.11,75.19 -2.56,31.64 29.96,90.56 10.85,19.64 3.81,24.24 9.33,45.45 4.79,18.42 16.18,17.52 20.1,40.15 7.62,43.89 -2.72,11.9 17.6,42.66 11.22,16.98 5.87,19.29 22.6,37.66 54.94,60.34 98.41,0.4 121.79,-51.33l40.75 -90.7c5.29,-28.19 9.16,-28.05 19.37,-46.37 9.79,-17.57 4.64,-35.04 11.88,-53.86 7.93,-20.64 14.49,-9.92 18.3,-47.42 4.94,-48.51 8.47,-17.36 16.88,-48.85 -52.5,0 -91.85,-2.3 -126.33,-38l-17.53 -15.33c-15.67,-14.11 -27.4,-27.53 -33.62,-48.55 -41.13,-138.8 -6.83,-70.38 -3.29,-150.1 2.33,-52.25 -0.96,-28.07 18.27,-63.89l21.24 -44.5c7.91,-10.83 3.2,-2.78 8.73,-13.18 22.27,-41.8 52.13,-78.25 85.22,-111.98l53.85 -44.75c8.25,-4.37 4.83,-1.06 14.66,-7.25l15.69 -11.7c9.7,-4.86 72.66,-14.57 110.62,-3.63 17.71,5.1 5.33,-0.81 17.29,10.1 56.93,51.93 46.64,85.46 60.37,153.27 5.13,25.32 -2.62,72.22 22.62,63.24 26.16,-9.31 1.13,-11.54 28.77,-21.64 11.55,-4.22 12.1,-1.03 22.91,-4.49 29.54,-9.45 6.96,-17.24 50.97,-20.25 73.23,-5.01 -18.41,-21.96 115.18,-21.76 31.04,0.05 62.09,0.01 93.13,0.01l58.84 -67.16c8.69,-7.07 3.84,-1.74 12.43,-9.48l134.43 -90.15c36.62,-21.46 28.34,-10.34 59.5,-22.67 14.24,-5.64 5.39,-6.72 24.18,-14.16 18.08,-7.16 51.16,-2.68 77.47,-4.69 26.5,-2.03 35.03,-10.79 65.9,-10.79 18.02,0 14.07,15.78 24.76,-2.44l9.78 -105.46c16.8,-125.28 -7.48,-331.76 21.31,-433.35 7.76,-27.37 10.28,-27.22 10.03,-66.66 -0.16,-24.42 -1.45,-52.86 -0.17,-76.86 2.97,-55.64 21.54,-101.6 22.19,-131.18 4.36,-198.78 19.07,-140.49 26.59,-203.48 2.59,-21.61 -0.61,-48.67 0.35,-70.86 1.5,-34.75 10.49,-31.72 18.08,-58.61 4.77,-16.9 1.11,-47.5 4.51,-72.17 2.97,-21.5 16.57,-33.77 20.24,-56.45 4.03,-24.9 -0.99,-53.07 5.75,-70.95 12.21,-32.36 14.15,-8.68 17.77,-58.92 1.74,-24.03 12.43,-36.72 19.89,-56.8 7.66,-20.62 2.29,-44.77 10.87,-65.81 12.6,-30.92 12.46,-8.5 18.86,-52.35 4.67,-31.99 17.19,-18.27 21.29,-55.4 2.12,-19.26 -1.12,-15.92 7.13,-31.22 1.57,-2.92 8.77,-12.83 8.87,-13.03 5.51,-10.5 5.1,-28.4 13.81,-41.12 14.37,-21 6.01,8.13 15.95,-20.64 7.8,-22.59 -11.55,3.63 5.99,-22.96 13.89,-21.06 3.4,6.51 16.62,-21.74 13.71,-29.28 38.98,-65.71 64.16,-89.25 13.69,-12.8 70.47,-61.45 86.45,-61.45 98.2,0 82.67,-14.08 135.98,22.88 6.27,4.35 2.72,1.09 9.23,7.21l55.6 59.42c26.82,30.24 3.63,39.04 40.21,58.39 0,39.16 -1.89,30.65 13.45,57.77 14.95,26.45 5.5,23.11 9.75,55.97 3.18,24.49 11.23,32.08 18.08,53.14 15.29,46.99 14.55,541.33 -4.78,603.65 -10.92,35.23 -12.82,90.9 -14.54,133.36 -1.31,32.21 -9.57,35.04 -17.42,59.27 -8.58,26.48 0.79,77.39 -9.64,105.39 -1.67,4.47 -11.2,22.65 -12.44,25.9 -8.94,23.37 -1.71,40.7 -4.39,66.83 -2.61,25.39 -17.79,33.78 -21.24,55.46 -4.49,28.23 3.11,45.44 -8.41,68.28 -14.19,28.11 -7.77,-0.29 -13.24,25.1 -2.27,10.53 -0.33,25.13 -1.51,36.83 -2.23,22.13 -14.81,35.61 -19.59,51.62 -3.29,11 -4.39,26.72 -5.36,32.99 -4.35,28.1 -17.73,26.74 -22.48,54.21 -15.87,91.88 -11.94,2.02 -23.26,86.29 -3.65,27.19 -15.43,20.1 -22.11,49.11 -6.58,28.57 1.56,5.75 -12.65,25.7 -9.95,13.96 -30.79,67.9 -46.95,89.99 -14.71,20.1 -4.91,18.42 -32.94,60.19l-71.63 109.13c-32.47,60.66 -8.75,212.93 -26.39,274.89 -14.42,50.67 -17.4,65.33 -17.32,130.58 0.06,45.27 3.22,103.95 -0.28,147.62 -3.52,43.95 -16.15,85.12 -16.15,131.75 0,59.83 9.84,110.07 15.66,165.09 4.01,37.85 0.4,91.46 0.46,131.02 0.06,40.44 0.57,25.66 14.99,50.75 6.26,10.9 6.09,26.47 15.96,33.34 9.27,6.45 3.28,1.12 12.19,4.24 17.88,6.26 72.2,36 72.2,59.26 0,101.83 13.22,79.88 -49.8,114.53 -13.94,7.67 -4.46,11.46 -21.42,11.46 -89.23,0 -65.63,13.12 -126.46,-26.91 -59.41,-39.08 -78.92,-101.48 -83.68,-108.04 -11.73,-16.15 -14.61,-8.42 -19.31,-35.47 -6.81,-39.18 -18.5,-26.92 -22.81,-75.8 -3.5,-39.56 -15.81,-21.74 -21.14,-50.07 -2.37,-12.57 -0.49,-50.13 -0.49,-65.25l-16.43 0c-8.35,31.26 -48.93,58.57 -71.93,81.45l-20.54 23.29c-6.92,7.64 -11.79,10.54 -20.25,18.09l-146.35 122.07c-51.65,39.23 -113.54,95.12 -172.42,117.91 -10.68,4.13 -0.27,-1.3 -11.77,4.66 -14.8,7.67 -7.64,7.94 -23.84,14.51 -89.21,36.2 -75.61,31.96 -190.3,28.92 -39.08,-1.03 -36.01,2.48 -59.18,-17.53l-42.2 -34.49c-31.27,-26.36 -43.54,-68.69 -58.47,-100.38 -15.32,-32.51 -15.36,-4.53 -15.35,-61.34 0,-20.46 -3.65,-49.05 -7.99,-68.71 -24.18,-109.81 0.13,-96 7.68,-194.43 1.87,-24.33 -1.82,-52.67 0.28,-76.41 1.36,-15.41 2.67,-17.27 8.43,-29.9 19.21,-42.09 8.22,-67.94 21.21,-93.83 14.04,-28 7.03,0.32 13.08,-25.26 2.72,-11.52 0.78,-20.46 3.91,-34.43 6.88,-30.61 16.62,-22.41 21.5,-55.19 5.49,-36.82 10.72,-23.2 22.35,-54.34 6.43,-17.21 0.06,-10.77 9.2,-29.15l49.67 -103.7c7.93,-11.33 8.17,-10.58 14.95,-23.4l-70.31 28.29c-24.03,15.44 -13.13,4.29 -37.43,11.88 -16.82,5.25 -14.82,10.44 -31.85,17.45l-32.04 17.25c-37.47,24.47 -59.59,7.66 -58.52,89.38 0.57,43.08 -8.18,44.34 -18.99,79.61 -5.31,17.31 -1.23,27.94 -3.46,45.84 -1.83,14.67 -6.63,21.4 -13.35,35.96 -10.45,22.67 -6.7,52.98 -19.98,78.62 -9.01,17.42 -10.77,12.76 -14.45,34.84 -8.98,53.86 -17.36,21.36 -22.73,70.4 -3.97,36.22 1.56,9.53 -14.01,35.3l-28.41 59.24c-18.78,43.93 -40.34,89.86 -71.81,125.39 -0.75,0.85 -1.78,2.1 -2.51,2.97 -4.32,5.17 -2.75,3.58 -7.05,9.38 -2.23,3.02 -2.36,3.35 -4.57,6.38l-23.37 25.94c-5.46,4.94 -6.26,5.46 -11.42,10.49 -9.14,8.9 -15.84,17.95 -23.7,25.59 -5.72,5.56 -0.07,0.61 -8.9,7.53l-12.61 9.31c-1.27,0.97 -4.76,3.94 -6.07,4.88l-6.44 4.52c-1.01,0.64 -2.41,1.41 -3.44,2.03 -21.68,12.91 -30.78,20.91 -55.62,26.55 -48.08,10.9 -68.21,43.67 -143.24,7.25 -10.8,-5.24 0.23,-1.28 -15.31,-6.6l-60 -27.64c-20.87,-8.77 -35.42,-27.14 -52.74,-40.39l-44.48 -43.16c-0.73,-0.87 -1.71,-2.17 -2.44,-3.03 -0.73,-0.87 -1.77,-2.11 -2.5,-2.98 -54.1,-63.57 -80.54,-120.54 -98.85,-142.17l-10.81 -16.59c-12.12,-33.87 -14.78,-25.87 -25.36,-56.8 -10.88,-31.75 -7.03,-6.27 -16.95,-26.87 -3.95,-8.18 -5.55,-29.1 -7.46,-36.37 -8.52,-32.29 -12.24,-6.96 -24.94,-62.7 -3.43,-15.06 -6.48,-16.04 -13.26,-30.57 -9.67,-20.73 -5.67,-11.14 -6.88,-36.94 -1.23,-26.3 -8.1,-24.31 -17.2,-43.05 -8.12,-16.72 -4.4,-41.9 -4.66,-61.08 -0.6,-44.63 -12.95,-36.95 -20.11,-67.54 -6.44,-27.52 -2.03,-132.01 -2.03,-167.78 -23.99,16.06 -16.87,7.58 -31.4,34.34l-52.82 100.56c-4.2,8.59 -3.54,11.14 -5.78,21.6 -8.87,41.4 -12.94,21.02 -21.88,43.86 -5.44,13.9 -0.83,14.92 -5.11,27.76 -4.42,13.28 1.22,0.28 -5.88,10.56 -17.2,24.93 -8.1,28.16 -19.81,51.4 -15.18,30.12 -9.18,-2.96 -16.43,43.82 -6.8,43.82 -13.05,0.53 -21.08,44.66 -2.68,14.75 1.63,13.05 -3.93,28.94 -9.74,27.82 -2.77,4.19 -10.81,16.58 -8.83,13.61 -8.01,31.3 -13.64,46.61 -6.84,18.61 -16.67,21.94 -20.56,39.69 -1.29,5.87 -0.57,8.72 -1.85,14.58 -3.98,17.99 -9.76,13.38 -17.16,32.14 -6.73,17.02 -3.27,36.85 -11.62,48.64 -5.67,8.01 -6.47,-4.23 -12.7,20.17 -2.43,9.49 -0.69,14.51 -2.88,24.51 -3.36,15.48 -4.15,11.05 -11.1,21.76 -8.21,12.65 -7.88,32.8 -14.24,46.02 -4.1,8.52 -6.26,5.09 -13.1,19.77l-30.62 89.89c-6.48,18.55 -16.07,22.63 -20.77,39.49 -4.53,16.25 1.42,11.22 -6.17,26.7 -11.61,23.66 -3.49,-4.97 -14.09,18.77 -6.37,14.25 -0.91,13.59 -5.47,27.4 -5.26,15.93 -14.89,20.49 -20.66,39.6l-36.39 84.13c-12.06,16.96 -11.02,28.67 -21.74,43.99l-114.02 150.62zm-1295.16 -727.17zm5.47 -5.48l-5.47 5.48zm5.47 -5.48l-5.47 5.48 5.47 -5.48zm0 0zm2667.7 -542.3l-2667.7 542.3zm2667.7 -542.3c-38.05,8.87 -21.28,24.6 -54.78,27.39l30.71 -78.85c20.36,-37.33 -6.22,-46.9 35.03,-74.52 -2.88,34.64 -10.96,89.98 -10.96,125.99zm975.06 -142.43c0,59.86 16.43,111.05 16.43,241.03 0,36.66 -3.08,90.14 1.36,124.63 10.77,83.62 20.55,33.88 20.55,149.26 0,21.66 2.26,0.72 -7.8,14.11l-26.38 28.4c-15.92,16.09 -22.15,23.92 -36.37,40.32 -5.54,6.39 -1.56,1.73 -8.1,8.34l-31.57 28.69c-14.9,11.84 -27.98,21.99 -42.54,34.16 -27.59,23.04 -29.54,30.26 -63.35,51.67 -12.21,7.74 -10.67,9.07 -21.95,16.4 -78.77,51.23 -37.93,17.4 -80.37,34.66 -21.3,8.67 -25.36,20.87 -53.6,5.73l-9.47 -6.96c-37.16,-29.86 -23.86,-69.91 -23.86,-162.39 0,-20.95 11.17,-29.03 17.44,-48.3 6.66,-20.51 1.05,-36.55 5.06,-60.67 3.28,-19.7 15.26,-23.82 19.81,-45.91 17.61,-85.38 13.89,-24.8 23.07,-75.54 8.64,-47.74 9.07,-15.28 19.7,-46.03 4.2,-12.17 1.66,-13.6 6.4,-26.46 4.04,-10.94 2.48,-5.93 5.49,-10.96 25.63,-42.98 35.86,-77.09 49.35,-98.55 6.77,-10.76 6.5,-10.26 11.9,-20.97l28.94 -47.75c50.57,-62.86 60.87,-97.86 145.47,-139.46 8.76,-4.31 2.34,-0.38 10.84,-6.15 38.85,-26.38 23.55,-11.98 23.55,18.71zm399.88 -624.46c0,-14.01 8.68,-0.88 3.26,0 -0.07,0.01 -3.26,15.29 -3.26,0zm10.96 -49.3c0,-75.33 -6.69,-65.64 12.5,-124.45 12.31,-37.72 8.83,-80.62 9.18,-127.77 0.48,-66.09 21.91,-48.9 22.38,-114.57 1.26,-174.31 22.97,-65.98 26.85,-252.52 0.68,-32.87 7.17,-29.82 14.46,-56.74 5.97,-22.02 8.06,-37.73 7.91,-63.31 -0.52,-92.34 12.77,-57.7 20.49,-116.46 6.21,-47.28 -12.35,-78.35 23.19,-119.24 24.03,103.19 2.09,81.77 -0.11,175.18 -1.59,67.33 1.1,124.56 -17.83,179.37 -17.75,51.35 -4.53,88.83 -10.08,121.39 -7.66,44.85 -18.83,-4.91 -20.94,116 -1.01,58.17 -23.13,18.44 -22.12,109.36 0.81,72.78 -20.64,20.96 -21.86,115.08 -0.78,59.61 -13.86,2.85 -22.25,109.22 -1.55,19.6 -9.46,40.45 -21.75,49.46z"/>
   <path class="fil0" d="M-0 4557.54l640.91 0c26.74,0 16.45,-56.58 16.43,-82.17l0 -3073.05c31.35,22.97 11.15,60.35 25.72,94.78l13.01 47.26c3.53,45.82 19.32,27.44 27.28,98.7 2.54,22.72 12.51,26.3 18.85,46.89 6.14,19.95 -1.08,36.42 5.76,54.5 6.99,18.48 15.85,11.1 18.67,47.07 4.23,54.17 16.41,42.11 21.57,71.55 1.75,10.01 -0.22,21.93 0.74,32.12 2.57,27.31 9.86,18.16 18.15,42.12 7.21,20.84 0.85,37.36 8.21,57.51 7.32,20.03 12.25,14.45 18.88,41.38 12.19,49.48 -11.01,9.84 19.56,73.57 13.53,28.2 1.42,46.5 19.73,78.86 15.51,27.41 5.2,19.09 8.54,51.72 3.4,33.28 9.17,10.2 18.74,41.52 6.21,20.33 -0.2,35.63 5.43,54.82 7.24,24.64 16.11,11.43 19.4,46.34 7.85,83.4 13.8,15.83 22.74,103.25 2.54,24.8 8.38,24.47 17.42,42.83 11.09,22.49 6.04,28.18 9.92,55.82 3.99,28.41 12.36,18.8 19,41.25 6.41,21.7 -2.78,39.85 6.35,59.39 9.5,20.34 15.88,1.93 17.93,42.32 1.9,37.36 -2.18,24.79 13.38,52.35 15.55,27.54 4.77,18.91 9.05,51.21 3.62,27.27 12.92,18.59 19.2,46.53 4.42,19.69 2.23,38.2 7.36,52.89 9.72,27.81 12.59,7.16 19.34,46.39 4.03,23.41 -0.16,34.07 8.39,51.87 9.9,20.62 14.45,8.57 16.25,44 2.09,41.07 -3.18,18.8 12.85,47.41 15.59,27.8 5.37,23.79 9.67,56.06 3.71,27.82 12.48,18.88 19,41.25 6.19,21.25 0.32,38.61 8.34,57.39 14.35,33.62 14.33,-0.79 16.11,44.15 2.12,53.46 15.08,42.42 23.89,102.1 6.03,40.81 7.62,22.86 18.96,46.76 8.02,16.9 3.43,31.14 6.77,53.49 4.7,31.49 14.39,12.02 20.25,45.48 3.8,21.71 -0.39,36.48 7.45,52.81 14.17,29.5 14.6,0.67 15.66,50.07 0.77,35.95 0.77,22.01 14.26,46 13.71,24.37 4.09,27.25 9.54,56.19 6.87,36.55 12.04,13.52 18.6,41.65 5.79,24.87 -1.82,32.4 8.96,56.77 9.68,21.86 12.69,13.24 17.76,42.5 5.33,30.79 -3.06,28.96 11.19,54.54 15.18,27.27 11.58,7.51 12.69,47.56 1.27,45.26 5.47,17.65 17.44,48.3 5.21,13.35 2.25,34.48 6.56,53.69 7.8,34.68 16.06,11.79 19.77,45.97 3.51,32.23 -5.16,23.03 9.11,51.15 14.62,28.81 9.72,14.8 13.77,51.97l15.22 45.03c9.67,20.05 8.9,28.29 11.17,54.56 3.42,39.57 6.19,13.66 17.52,42.74 7.77,19.92 0.84,36.27 8.19,57.54 8.28,23.92 15.73,14.96 18.12,42.14 2.07,23.46 -8.9,49.14 16.59,49.14l750.46 0c12.62,0 16.43,-3.81 16.43,-16.43l0 -4541.11 -673.77 0 0 2437.63c0,50.37 9.98,94.11 0,136.95 -23.8,-27.38 -9.67,-47.09 -19.52,-79.07 -7.99,-25.92 -11.91,-12.41 -17.25,-32.06 -4.52,-16.65 1.34,-33.21 -3.88,-50.9 -5.92,-20.1 -11.36,-11.88 -17.27,-32.03 -4.6,-15.67 -0.83,-29.16 -3.47,-45.84 -3.84,-24.27 -9.71,-20.28 -15.98,-33.32 -8.54,-17.8 -2.95,-25.57 -6.76,-48.01 -5.53,-32.53 -17.83,-39.31 -20.28,-50.93 -1.29,-6.09 -2.96,-20.32 -3.49,-23.9 -7.29,-49.21 -22.42,-37.48 -23.59,-80.5 -1.49,-54.76 -19.46,-28.36 -21.78,-82.3 -2.81,-65.56 -20.78,-29.91 -22.17,-81.9 -1.52,-56.93 -17.42,-40.93 -21.53,-77.06 -2.26,-19.84 0.1,-27.97 -6.48,-42.83 -8.15,-18.39 -12.17,-11 -15.53,-39.25 -7.33,-61.77 -20.48,-58.03 -28.18,-119.73 -3.59,-28.78 -9.05,-22.99 -16.49,-38.29 -9.18,-18.9 -2.78,-21.82 -4.9,-44.4 -2.39,-25.43 -3.78,-13.13 -14.67,-34.62 -10.12,-19.96 -5.83,-16.94 -7.1,-42.2 -1.56,-30.72 -2.83,-20.1 -14.29,-40.49 -11.62,-20.65 -6.13,-14.65 -8.05,-41.25 -3.76,-52.37 -17.69,-29.1 -21.93,-82.15 -2.48,-31.11 -22.71,-48.78 -26.3,-77.78 -2.78,-22.48 3.65,-25.07 -5.43,-43.87 -6.3,-13.07 -12.14,-8.97 -15.99,-33.31 -3.19,-20.21 2.41,-32.22 -4.87,-49.9 -9.63,-23.37 -12.82,-5.31 -17.56,-31.75 -4.57,-25.51 -1.3,-43.75 -14.79,-67.37 -6.07,-10.6 -1.42,2.74 -5.65,-10.78 -5.22,-16.7 0.83,-32.55 -4.4,-50.38 -5.89,-20.14 -11.29,-11.76 -17.23,-32.07 -4.49,-15.34 -1.03,-28.22 -4.24,-45.07 -7.27,-38.28 -18.82,-18.58 -24.83,-79.25 -5.17,-52.19 -19.75,-22.15 -22.65,-81.42 -2.12,-43.23 -20.43,-33.79 -21.79,-82.3 -1.18,-42.17 -20.1,-35.42 -21.88,-76.73 -2.81,-65.37 -19.84,-29 -22.2,-81.86 -1.68,-37.5 -18.13,-47.18 -21.94,-82.15 -4.37,-40.26 -19.37,-50.74 -25.61,-78.46 -3.59,-15.92 0.85,-31.37 -3.14,-46.16 -5.32,-19.71 -9.3,-6.08 -17.23,-32.07 -5.72,-18.72 -1.1,-27.08 -3.61,-45.7 -3.76,-27.97 -11.99,-19.56 -18.49,-36.28 -6.14,-15.79 -0.86,-28.84 -3.56,-45.74 -3.16,-19.78 -10.75,-17.33 -17.65,-37.13 -6.69,-19.19 -1.49,-25.31 -4.19,-45.11 -3.48,-25.57 -9.95,-16.78 -15.86,-38.91l-914.8 0 0 4557.54z"/>
   <path class="fil0" d="M13387.79 3878.29l-9.86 12.06c2.68,-15.33 -3.13,-7.21 9.86,-12.06zm0 0zm-1040.78 -43.82l1040.78 43.82zm-1040.78 -43.82c0,-91.95 -21.91,-61.7 -21.91,-125.99 0,-50.45 -4.34,-89.36 5.48,-131.47 9.32,-2.17 14.34,-2.6 22.67,-4.72 27,-6.83 3.98,2.7 22.42,-10.44 30.62,-21.81 19.81,-6.81 42.54,-17.71 -0.17,7.5 -6.55,71.67 -8.69,78.96 -8.63,29.29 -18.6,13.27 -18.52,74.6 0.07,54.35 -14.48,25.83 -20.95,66.69 -3.82,24.14 5.95,59.58 -23.04,70.07zm-49.3 -438.22l-25.1 -29.68c-30.01,-30.57 -26.56,-22.19 -62.54,-30.57 5.84,-21.86 50.58,-51.35 70.07,-66.88 15.26,-12.17 67.51,-42.68 83.32,-42.68 17.6,0 21.72,4.54 36.04,18.74l11.73 15.66c1.54,3.8 17.82,67.94 17.96,69.68 -12.09,5.8 -22.86,6.72 -34.55,14.75 -39.08,26.87 -25.17,11.94 -45.8,25.41 -11.73,7.66 -2.18,4.13 -15.88,11.51l-35.23 14.07zm531.35 -334.15c0,72.11 13.63,59.43 16.43,93.13 -71.97,0 -51.68,17.6 -93.33,21.71 -73.72,7.25 -29.57,7.65 -62.74,19.42 -14.72,5.22 -16.11,0.43 -31.77,6.58 -27.95,10.98 -10.93,23.5 -58.66,23.5 0,-84.35 -0.32,-68.79 -22.4,-147.41 -6.3,-22.45 -5.13,-10 -14.95,-28.88 -11.54,-22.18 -1.19,-30.64 -16.22,-49.51l-73.36 -85.5c-20.11,-19.22 -8.34,-5.41 -30.09,-13.72l-30.94 -18.36c-58.48,-21.53 -27.68,-21.17 -63.84,-23.8 -49.68,-3.62 -128.52,-15.33 -174.48,6.63 -9.53,4.56 -13.03,8.61 -26.29,12.06 -29.71,7.73 -24.55,3.13 -47.78,17.95l-34.09 15.2c-1.35,0.9 -4.71,4 -6.03,4.94l-84.79 63.11c-22.74,16.37 -49.95,46.17 -69.25,67.7l-25.91 39.82c-18.67,24.47 -25.65,25.07 -37.39,55.73 -0.49,1.27 -0.93,2.8 -1.47,4.01l-51.16 80.31c-0.73,0.86 -1.89,1.99 -2.63,2.85 -0.73,0.86 -1.88,2 -2.59,2.89 -9.16,11.36 -5.8,8.29 -12.54,20.33l-120.87 158.5c-6.62,7.38 -9.34,10.01 -15.59,17.27 -0.74,0.86 -1.8,2.07 -2.53,2.94l-14.38 18.49c-32.82,45.66 -71.07,85.76 -108.8,126.76l-142.81 147.5c-4.32,3.98 -6.75,5.95 -11.54,10.38l-81.63 77.23c-0.82,0.78 -1.97,1.91 -2.81,2.67 -0.83,0.76 -2.05,1.83 -2.9,2.58l-152.45 94.05c-64.03,0 -78.29,16.39 -100.21,-31.26 -29.81,-64.78 -14.41,-91.39 -14.86,-171.46 -0.16,-26.45 -1.68,-41.89 4.62,-61.11 21.93,-66.92 11.33,-85.51 18.9,-112.57 4.9,-17.51 14.86,-14.05 19.07,-46.66 3.66,-28.39 -3.94,-28.59 8.87,-51.38 17.27,-30.71 11.66,-8.57 14.28,-51.46 2.2,-36.01 8.57,-19.15 18.25,-47.49 8.28,-24.25 -1.52,-30.2 10.79,-54.94 16.47,-33.1 8.48,-5.23 16.22,-49.51 1.68,-9.62 3.71,-14.98 8.97,-23.9 13.65,-23.15 11.64,-52.97 21.64,-76.96 26.42,-63.42 20.8,-60.39 -5.01,-124.78 -9.98,-24.89 -1.02,-11.79 -17.79,-31.51 -0.73,-0.86 -1.89,-1.99 -2.62,-2.86 -26.57,-32.02 -49.25,-42.5 -84.64,-63.26 -14.71,-8.63 -71.25,-13.27 -90.8,-11.69 -14.27,1.16 -23.86,3.18 -44.99,4.67 -33.23,2.36 -12.06,-2.05 -34.72,14.58 -11.92,8.76 -0.84,0.79 -13.49,8.43l-52.68 51.4c-30.75,41.07 -23.73,65.64 -41.88,89.58 -10.06,13.27 -8.66,25.12 -11.07,43.71 -3.49,26.9 -9.12,18.15 -16.48,32.82 -9.2,18.34 -2.17,21.31 -6.19,43.11 -5.16,28.03 -23.32,33.72 -25.7,78.38l-2.39 24.99c-6.18,19.81 -18.04,27.01 -19.58,51.64 -1.92,30.5 -1.73,34.64 -13.35,63.35 -14.55,35.94 -2.54,81.19 -14.36,111.63l-3.56 7.4c-13.79,27.7 -13.03,48.81 -12.72,80.4 0.72,74.07 -21.97,118.37 -21.97,186.19 0,51.66 -9.51,135.24 8.55,183.18 21.53,57.15 6.37,68.97 24.18,96.33 10.59,16.27 11.65,31.74 24.25,46.97 0.72,0.87 1.97,1.91 2.7,2.78l7.18 9.25c7.9,12.66 1.34,7.43 11.44,21.43 4.46,6.19 12.94,13.58 18.89,19.46 64.65,63.9 33.36,25.98 87.44,54.99 32.96,17.68 94.27,19.18 133.96,10.17 24.33,-5.52 18.76,-8.18 35.15,-14.15 14.7,-5.35 29.17,-4.86 41.51,-7.8 29.93,-7.13 11.63,-6.37 32.48,-16.81l94.33 -48.1c1.14,-0.57 2.72,-1.04 3.85,-1.63l47.56 -29.13c49.75,-33.71 110.6,-93.17 164.24,-131.55l176.45 -163.18c0.79,-0.8 1.98,-1.91 2.77,-2.71l166.35 -173.28c10.79,-11.59 11.95,-15.73 22.49,-26.81l46.28 -52.54c11.42,-14.74 15.88,-22.63 25.69,-17.92 26.31,12.67 -3.42,14.72 29.89,46.8 23.15,22.29 75.65,68.23 107.05,68.23l38.35 0 0 197.2c0,27.06 9.35,37.15 15.38,55.83 8.97,27.78 -1.12,67.86 12.81,96.75l15.89 38.88c2.97,15.8 -1.2,5.09 4.61,17.31 4.02,8.46 7.2,7.36 14.71,23.63 8.89,19.22 25.17,54.69 39.84,69.72 48.1,49.25 39.23,34.64 87.5,65.88 20.17,13.05 47.09,9.97 72.2,9.97 53.52,0 149.62,-83.32 173.62,-122.18l33.4 -43.29c14.77,-15.02 67.5,-118.85 77.64,-141.47 7.77,-17.31 1.93,-10.66 6.42,-26.45 5.41,-19.03 7.34,-11.31 14.89,-23.45 15.37,-24.67 -4.02,-31.86 15.58,-61.11 22.31,-33.3 6.88,-18.26 13.29,-57.92 3.75,-23.21 18.91,-26.53 21.16,-55.53 7.83,-101.13 14.6,-50.76 21.41,-88.14 6.4,-35.12 6.04,-136.74 6.04,-180.21l22.27 -16.08c0.88,-0.72 2,-1.88 2.92,-2.55l29.91 -13.91c8.03,-4.67 3.66,-4.02 12.37,-9.54l28.45 -9.89c28.67,-9.84 12.26,-16.22 52.77,-23.92 28.48,-5.41 29.19,-17.26 55.04,-21.64 13.57,-2.3 137.86,-4.83 139.25,-4.48 15.2,3.77 19.56,15.42 30.38,24.46 6.5,5.43 6.21,4.28 12.91,9.01 32.68,23.07 92.06,43.6 99.43,48.46 15.2,10 0.42,9.63 24.4,13.96 13.67,2.47 20.67,-1.34 35.36,2.99 34.19,10.06 0.32,18.43 56.98,19.71 67.4,1.52 9.92,19.24 126.32,21.57 42.64,0.86 72.25,21.6 126.73,26.64 52.82,4.89 24.75,-5.75 59.31,17.38 -15.48,23.11 -41.54,34.73 -62.22,52.81 -0.86,0.75 -1.99,1.9 -2.82,2.66l-155.73 134.6c-0.85,0.75 -2.09,1.79 -2.92,2.55l-115.79 119.75c-11.57,13.71 -19.05,19.88 -29.33,36.4 -27.38,44 -28.58,31.4 -67.11,97.23 -10.78,18.41 -19.55,19.03 -24.4,41.32 -21.13,97.03 -27.2,-21.56 -27.2,197.4l28.44 64.69c8.94,16.28 35.42,45.95 56.22,58.81 21.14,13.08 20,19.31 46.77,24.44 48.59,9.31 57.88,30.88 113.76,15.07 14.13,-4 22.26,-11.06 35.6,-13.69 14.79,-2.92 25.12,-0.07 40.4,-3.43 23.44,-5.16 16.02,-8.54 32.24,-17.06 12.38,-6.49 21.36,-6.16 32.42,-11.4l204.18 -135.45c0.92,-0.69 2.26,-1.61 3.15,-2.33l19.76 -18.59c0.79,-0.8 1.93,-1.96 2.72,-2.76 0.79,-0.8 1.93,-1.96 2.72,-2.76l46.58 -46.54c0.81,-0.79 1.95,-1.94 2.75,-2.73l19.07 -19.28c4.06,-4.49 6.2,-7.62 9.89,-12.02 0.73,-0.87 1.77,-2.11 2.5,-2.98 28.32,-33.26 49.37,-72.5 70.51,-93.83 34.49,-34.82 50.3,-97.94 75.57,-138.07 7.91,-12.57 3.24,-2.27 7.54,-14.37 15.26,-42.89 20.9,-29.19 23.68,-74.92 2.04,-33.66 0.33,-13 14.15,-35.15 15.01,-24.04 4.25,-51.49 9.03,-84.1 11.11,-75.83 44.87,-89.36 -1.27,-176.55l105.81 -64.01c18.85,-11.88 1.84,-2.02 24.13,-8.73 28.95,-8.72 17.11,-16.45 47.66,-23.56l47.09 -18.63c30.69,-16.1 55.08,7.51 111.32,-25.63 22.29,-13.13 19.73,-23.32 41.96,-29.25l0 -93.12c-15.66,-4.19 -7.06,-2.76 -17.03,-10.36 -0.9,-0.68 -2.07,-1.82 -2.96,-2.51l-15.73 -11.66c-37.72,-27.42 -59.92,-19.29 -106.71,-19.29 -21.79,0 -21.42,6.77 -35,14.3 -25.19,13.98 -19.43,3.48 -46.46,8.33 -26.38,4.72 -8.7,9.18 -36.16,18.61 -26.47,9.09 -14.59,-2.05 -39.8,14.98 -27.6,18.63 -59.73,26.13 -87.22,44.24l-56.64 25.53c-13.43,-25.39 -20.02,-27.98 -39.76,-47.88l-44.81 -37.36c-45.89,-27.21 -33.03,-13.73 -60.3,-32.83 -8.88,-6.22 -2.57,-3.62 -14.44,-7.47l-46.33 -19.4c-25.36,-9.69 -45.89,4.56 -76.56,-11.09 -56.93,-29.03 -118.94,-2.22 -188.94,-30.17 -33.13,-13.24 -76.83,-3.1 -108.15,-23.32 -0.98,-0.63 -2.19,-1.67 -3.2,-2.28l-26.33 -12.02c-18.96,-12.28 -17.45,-43.14 -13.93,-63.85 3.58,-21.03 20.62,-32.01 34.15,-48.96 22.44,-28.09 78.85,-69.79 112.02,-85.18 13.05,-6.05 3.24,0 14.51,-7.4l43.93 -21.81c32.62,-20.69 13.35,-4.74 45.31,-20.43 41.79,-20.51 -8.02,-16.09 109.9,-16.09 27.68,0 28.57,34.57 34.96,52.69l10.02 17.37c22.06,45.81 -7.73,66.88 102.93,66.88 22,0 65.74,-26.16 65.74,-49.29 0,-48.68 11,-132.4 -11.43,-174.82 -19.37,-36.63 0.59,-57.04 -23.08,-91.95 -14.37,-21.18 -9.31,-18.53 -9.31,-50.94 -31.96,-16.91 -17.13,-25.18 -40.31,-52.81 -59.9,-71.41 -35.25,-50.74 -110.4,-97.76 -22.63,-14.16 -39.25,-11.7 -66.27,-15.89 -113.69,-17.65 -46.93,1.33 -117.04,2.26 -10.26,0.13 -28.73,-1.34 -37.98,0.37 -24.34,4.5 -9.1,6.15 -28.07,15.74 -19.4,9.8 -11.31,2.14 -31.84,6.51l-271.41 188.73c-0.8,0.79 -1.93,1.95 -2.73,2.75l-21.85 21.97c-58.17,58.57 -64.64,82.19 -105.92,129.62l-14.74 23.62c-0.48,1.36 -0.66,2.97 -1.14,4.34 -7.44,21.33 -12.68,15.05 -21.28,38.97 -7.14,19.9 -21.6,40.97 -25.78,61.86 -5.07,25.32 4.46,14.93 -8.74,35.08 -9.55,14.57 -9.97,0.33 -14.3,24.04 -2.12,11.63 0.4,29.68 -1.01,42.82 -3.12,29.09 -21.36,42.23 -21.36,66.28z"/>
   <path class="fil0" d="M10857.04 2700.56c0,26.07 -2.4,36.31 8.11,57.62 31.89,64.68 -0.75,26.08 32.04,61.08l7.58 8.86c0.74,0.86 1.71,2.17 2.46,3.03l35.93 29.8c1.08,0.6 2.6,1.19 3.66,1.82l19.05 13.82c16.01,8.31 17.44,3.47 38.19,5.65 17.06,1.78 66.07,18.71 114.79,-2.03l76.16 -55.31c10.16,-12.87 -0.01,0.67 8.17,-13.75l17.24 -26.59c16.28,-37.43 3.65,-119.28 3.65,-155.21 -33.61,-3.68 -7.92,-12.71 -49.25,-49.36 -0.13,-0.12 -11.43,-9.53 -11.98,-9.94l-17.16 -10.22c-20.47,-9.09 -18.93,1.69 -25.69,-23.61 -38.58,0 -120.04,-9.99 -149.71,9.14 -56.19,36.23 -15.63,-0.77 -73.55,57.92 -13.23,13.4 -7.14,-8.38 -19.4,35.37 -7.99,28.49 -20.27,26.46 -20.27,61.89z"/>
  </g>
 </g>
</svg>
